<?xml version="1.0" encoding="UTF-8"?>
<svg id="Layer_1" data-name="Layer 1" xmlns="http://www.w3.org/2000/svg" xmlns:xlink="http://www.w3.org/1999/xlink" viewBox="0 0 501.14 481.11">
  <defs>
    <style>
      .cls-1 {
        filter: url(#drop-shadow-1);
      }

      .cls-2 {
        fill: #fefdf2;
      }

      .cls-3 {
        fill: #cf3e34;
      }

      .cls-4 {
        opacity: .6;
      }

      .cls-5 {
        opacity: .22;
      }

      .cls-6 {
        opacity: .21;
      }

      .cls-7 {
        opacity: .33;
      }

      .cls-8 {
        fill: #301111;
      }

      .cls-9 {
        fill: #ab2524;
      }
    </style>
    <filter id="drop-shadow-1" x="45.67" y="18.49" width="423.6" height="458.16" filterUnits="userSpaceOnUse">
      <feOffset dx="7" dy="7"/>
      <feGaussianBlur result="blur" stdDeviation="5"/>
      <feFlood flood-color="#231f20" flood-opacity=".75"/>
      <feComposite in2="blur" operator="in"/>
      <feComposite in="SourceGraphic"/>
    </filter>
  </defs>
  <g class="cls-1">
    <g>
      <g>
        <g>
          <path class="cls-3" d="M245.13,114.11c5.1-38.18-8.93-51.85-12.42-54.9-7.31-6.4-24.15-10.11-57.55-17.27-7.19-1.54-13.13-2.72-17.11-3.48,2.24,7.93,5.74,16.76,11.28,25.67,22.83,36.72,63.21,47.23,75.79,49.98Z"/>
          <path class="cls-3" d="M255.74,113.67c-4.21-46.53,13.5-62.36,17.88-65.88,9.18-7.38,29.79-11,70.62-17.95,8.79-1.5,16.05-2.61,20.91-3.34-3.12,9.49-7.82,20.01-14.99,30.52-29.56,43.31-79.02,53.96-94.41,56.65Z"/>
        </g>
        <g class="cls-4">
          <path class="cls-8" d="M245.13,114.11c5.1-38.18-8.93-51.85-12.42-54.9-7.31-6.4-24.15-10.11-57.55-17.27-7.19-1.54-13.13-2.72-17.11-3.48,2.24,7.93,5.74,16.76,11.28,25.67,22.83,36.72,63.21,47.23,75.79,49.98Z"/>
          <path class="cls-8" d="M255.74,113.67c-4.21-46.53,13.5-62.36,17.88-65.88,9.18-7.38,29.79-11,70.62-17.95,8.79-1.5,16.05-2.61,20.91-3.34-3.12,9.49-7.82,20.01-14.99,30.52-29.56,43.31-79.02,53.96-94.41,56.65Z"/>
        </g>
      </g>
      <g>
        <path class="cls-9" d="M117.55,98.86c11.93-3.91,27.97-7.77,47.15-8.57,30.97-1.29,55.77,6.01,70.72,11.79-.36,3.93-.71,7.86-1.07,11.79-2.47-.67-41.04-10.51-67.5,15-12.8,12.34-16.82,27.21-18.22,34.29-10.36-21.43-20.72-42.86-31.07-64.29Z"/>
        <path class="cls-9" d="M383.28,98.86c-11.93-3.91-27.97-7.77-47.15-8.57-30.97-1.29-55.77,6.01-70.72,11.79.36,3.93.71,7.86,1.07,11.79,2.47-.67,41.04-10.51,67.5,15,12.8,12.34,16.82,27.21,18.22,34.29,10.36-21.43,20.72-42.86,31.07-64.29Z"/>
      </g>
      <circle class="cls-3" cx="250.41" cy="112.79" r="22.5"/>
    </g>
    <g>
      <path class="cls-3" d="M120.94,157.79c-5.76,3.24-17.56,10.97-25.72,25.72-4.81,8.71-6.7,16.88-7.5,22.5-16.84,3.37-23.98,11.19-26.79,15-16.77,22.73-2.14,57.86,27.86,93.22,35.58,41.93,107.15,85.72,159.65,140.37,70.26-42.31,118.86-84.87,150.01-115.72,34.29-33.97,52.37-58.67,48.22-85.72-3.1-20.2-17.68-34.6-28.04-42.86,1.2-4.44,0-16.07-5.18-25.72-7.42-13.81-23.75-24.64-33.22-26.79-5.43,8.13-42.46,61.66-111.44,69.65-56.99,6.6-113.95-20.41-147.87-69.65Z"/>
      <g class="cls-7">
        <path class="cls-8" d="M99.33,177.08c19.63,72.93,87.55,122.08,160.73,117.87,68.38-3.94,127.35-53.68,143.58-122.15-95.55,80.17-196.98,81.6-304.31,4.29Z"/>
      </g>
      <g class="cls-6">
        <path class="cls-8" d="M437.25,229.89c-5.69-8.42-12.81-14.97-18.61-19.59-2.58,17.53-8.36,40.8-22.5,64.29-31.01,51.49-81.85,70.27-80.36,72.86,1.42,2.47,49.46-11.1,85.72-52.5,19.23-21.96,29.79-45.62,35.76-65.06Z"/>
        <path class="cls-8" d="M122.9,258.51c-17.68-19.08-28.62-38.33-35.34-52.47-11.16,2.26-18.03,6.48-22.2,10.16,10.58,18.93,26.1,40.12,48.97,58.38,38.5,30.75,81.33,40.03,82.51,37.5,1.16-2.49-38.48-15.32-73.93-53.58Z"/>
      </g>
    </g>
    <g>
      <path class="cls-3" d="M397.7,111.72c-3.36-4.9-7.27-8.75-11.14-11.76-4.61-3.58-11.37-1.41-13.12,4.15-5.35,17.03-18.95,48.12-51.83,69.75-34.93,22.98-107.17,22.98-142.1,0-32.88-21.63-46.48-52.72-51.83-69.75-1.75-5.57-8.51-7.74-13.12-4.15-3.87,3.01-7.78,6.85-11.14,11.76-18.85,27.54-10.72,55.72,1.07,77.15,31,56.36,79.96,85.78,146.06,85.78s115.06-29.42,146.06-85.78c11.79-21.43,19.93-49.61,1.07-77.15Z"/>
      <g class="cls-5">
        <path class="cls-2" d="M176.48,208.15c-4.18,11.48,63.96,49.4,127.51,21.43,63.21-27.82,89.67-97.65,85.72-100.72-3.55-2.76-28.95,51.79-92.15,78.22-58.93,24.64-116.79-10.72-121.08,1.07Z"/>
        <path class="cls-2" d="M157.19,199.58c3.97-3.92-4.14-19.6-13.93-28.93-5.44-5.18-15.97-12.76-20.36-9.64-3.5,2.49-1.93,11,0,16.07,6.55,17.17,29.62,27.11,34.29,22.5Z"/>
      </g>
    </g>
  </g>
</svg>