<?xml version="1.0" encoding="UTF-8"?>
<svg id="Layer_1" data-name="Layer 1" xmlns="http://www.w3.org/2000/svg" xmlns:xlink="http://www.w3.org/1999/xlink" viewBox="0 0 501.14 481.11">
  <defs>
    <style>
      .cls-1 {
        filter: url(#drop-shadow-1);
      }

      .cls-2 {
        opacity: .25;
      }

      .cls-2, .cls-3 {
        fill: #f1a721;
      }

      .cls-4 {
        fill: #85827b;
      }

      .cls-5 {
        fill: #994f23;
      }

      .cls-6 {
        opacity: .43;
      }

      .cls-7, .cls-8 {
        opacity: .2;
      }

      .cls-9, .cls-10 {
        opacity: .1;
      }

      .cls-11 {
        fill: #301111;
      }

      .cls-12 {
        fill: #581f0e;
      }

      .cls-13 {
        fill: #d58d28;
      }

      .cls-8, .cls-10 {
        fill: #fefdf2;
      }
    </style>
    <filter id="drop-shadow-1" x="11.11" y="-3.83" width="492.96" height="502.8" filterUnits="userSpaceOnUse">
      <feOffset dx="7" dy="7"/>
      <feGaussianBlur result="blur" stdDeviation="5"/>
      <feFlood flood-color="#231f20" flood-opacity=".75"/>
      <feComposite in2="blur" operator="in"/>
      <feComposite in="SourceGraphic"/>
    </filter>
  </defs>
  <g class="cls-1">
    <g>
      <polygon class="cls-13" points="438.78 347.21 460.1 334.66 457.94 359.31 481.89 365.51 462.94 381.41 475.49 402.73 450.84 400.57 444.64 424.52 428.74 405.57 407.42 418.11 409.58 393.47 385.63 387.27 404.58 371.37 392.03 350.04 416.68 352.2 422.88 328.26 438.78 347.21"/>
      <g class="cls-7">
        <path class="cls-11" d="M440.91,359.8c-8.32-3.57-14.99,3.03-28.4,4.33-3.22.31-7.41.37-12.47-.47l4.54,7.71-17.13,14.37.07,2.01,22.06,5.72-1.83,20.9c19.45-10.27,46.18-27.21,43.55-41.62-.8-4.38-4.67-10.5-10.39-12.95Z"/>
      </g>
      <path class="cls-3" d="M445.15,371.44c-.02-.05-.03-.1-.05-.16-1.67-5.22-7.16-8.21-12.44-6.73-16.23,4.54-47.51,9.84-80.84-4.44-9.56-4.1-17.67-9.12-24.44-14.26l-10.96,63.71c18.06,6.83,42.89,11.8,70.69,4.77,27.58-6.97,46.03-22.71,55.64-32.67,2.61-2.71,3.54-6.62,2.4-10.21Z"/>
      <g class="cls-7">
        <circle class="cls-11" cx="432.45" cy="376" r="6.88"/>
      </g>
    </g>
    <path class="cls-11" d="M19.76,287.11c-1.47,17.31.22,34.47,4.7,50.85,15.22,55.66,61.83,97.14,118.69,106.92l55.96,9.63c35.92-2.53,58.66-17.28,58.66-17.28l2.79,27.85,68.5,11.79,15.07-62.62L19.76,287.11Z"/>
    <path class="cls-5" d="M237.78,26.25l-25.67,257.09c-42.74,27.69-76.98,30.52-178.42-6.43-7.79-2.84-15.68,2.95-14.05,10.29,22.85,102.87,108.57,122.89,163.57,132.35,67.36,11.59,160.93-5.29,160.93-5.29l79.32-343.43C377.64-.24,315.24-13.3,237.78,26.25Z"/>
    <path class="cls-10" d="M237.78,26.25l-25.67,257.09,9.13,3.96L279.73,9.59c-13.45,3.68-27.44,9.24-41.95,16.66Z"/>
    <g class="cls-7">
      <path class="cls-11" d="M113.13,395.32c-6.31-1.09-12.53-2.4-18.65-3.92,29.85,16.84,62.72,23.67,88.72,28.15,67.36,11.59,160.93-5.29,160.93-5.29l31.89-138.1c-53.33,87.14-156.08,137.55-262.9,119.16Z"/>
    </g>
    <g class="cls-6">
      <path class="cls-3" d="M412.27,119.22l11.18-48.4C377.64-.24,315.24-13.3,237.78,26.25l-4.98,49.86c74.38-36.5,134.67-23.76,179.47,43.11Z"/>
    </g>
    <path class="cls-12" d="M200.06,290.49c7.2,17.32,22.58,47.82,53.45,75.67,35.1,31.66,72.05,43.49,90.69,48.12,2.88-3.2,6.99-8.61,9.6-16.3,4.36-12.85,1.83-24.04.54-28.53-27.14-16.35-61.39-41.15-94.31-77.85-17.95-20.01-32.02-39.69-43.01-57.37-3.92,3.4-11.1,10.59-15.45,22.09-5.88,15.57-2.86,29.26-1.52,34.19Z"/>
    <path class="cls-4" d="M365.93,319.03c-35.62-10.27-70.05,1.03-81.4,21.89-14.35,26.38,3.58,76.62,54.6,94.3,6.84-9.14,14.75-21.85,20.64-38.17,12-33.24,8.91-62.79,6.15-78.02Z"/>
    <path class="cls-12" d="M233.63,67.26c23,11.99,56.75,26.27,99.5,33.62,32.18,5.53,60.4,5.58,82.28,3.97,1.13,7.8,2.01,21.05-2.39,36.46-3.09,10.82-7.75,19.11-11.53,24.7-23.44,1.76-55.56,1.73-92.65-5.76-33.99-6.86-61.54-17.85-81.61-27.63-2.61-6.21-7.94-21.33-4.27-40.03,2.28-11.62,7.16-20.21,10.67-25.33Z"/>
    <path class="cls-3" d="M373.61,130.65c.69-7.17,1.11-14.05,1.32-20.61.15-4.54-2.91-8.54-7.31-9.62-12.22-2.99-24.99-5.83-38.3-8.44-10.63-2.08-21-3.9-31.08-5.49-4.29-.67-8.49,1.64-10.24,5.62-4.52,10.26-8.98,23.53-11.08,39.37-.93,7.01-1.27,13.56-1.25,19.51.02,3.96,2.46,7.5,6.17,8.92,11.83,4.54,27.02,9.02,45.03,11.22,12.18,1.49,23.24,1.63,32.77,1.13,4.38-.23,8.05-3.37,8.92-7.66,2.1-10.34,3.88-21.69,5.06-33.94ZM350.89,150.81c-.51,2.53-2.67,4.37-5.25,4.51-5.61.29-12.11.21-19.28-.67-10.59-1.29-19.53-3.93-26.48-6.6-2.18-.84-3.62-2.91-3.63-5.25-.01-3.5.19-7.35.74-11.47,1.24-9.31,3.86-17.12,6.52-23.15,1.03-2.34,3.5-3.7,6.02-3.3,5.93.93,12.02,2,18.28,3.23,7.83,1.53,15.34,3.2,22.52,4.96,2.59.63,4.39,2.99,4.3,5.66-.13,3.86-.37,7.91-.78,12.12-.69,7.2-1.74,13.88-2.97,19.96Z"/>
    <path class="cls-2" d="M33.68,276.91c-7.79-2.84-15.68,2.95-14.05,10.29,11.63,52.37,39.56,83.27,71.44,102.23,10.94-11.62,18.6-26.2,21.45-42.73,2.84-16.5.5-32.77-5.9-47.37-19.92-4.39-43.62-11.74-72.94-22.42Z"/>
    <g class="cls-9">
      <path class="cls-11" d="M368.23,354.96c-10.13,32.78-33.38,54.75-56.05,50.85-13.91-2.39-24.77-14.05-30.76-30.61,5.49,23.45,24.65,48.58,57.72,60.04,6.84-9.14,14.75-21.85,20.64-38.17,5.46-15.13,7.79-29.5,8.46-42.1Z"/>
    </g>
    <path class="cls-8" d="M293.1,371.47c-3.62-1.2-4.7-12.08-1.86-20.21,8.04-22.98,49.23-29.04,51.3-24.65,1.39,2.95-16,8.14-35.46,31.26-6.68,7.94-10.81,14.66-13.99,13.6Z"/>
  </g>
</svg>