<?xml version="1.0" encoding="UTF-8"?>
<svg id="Layer_1" data-name="Layer 1" xmlns="http://www.w3.org/2000/svg" xmlns:xlink="http://www.w3.org/1999/xlink" viewBox="0 0 501.14 481.11">
  <defs>
    <style>
      .cls-1 {
        filter: url(#drop-shadow-1);
      }

      .cls-2 {
        fill: #7e8535;
      }

      .cls-3 {
        fill: #d1ca6e;
      }

      .cls-4 {
        fill: #a6aa37;
      }

      .cls-5 {
        fill: #6b6d2e;
        opacity: .57;
      }

      .cls-6 {
        fill: #c2b860;
      }

      .cls-7 {
        opacity: .53;
      }

      .cls-7, .cls-8 {
        fill: #4d4c1f;
      }

      .cls-8 {
        opacity: .24;
      }

      .cls-9 {
        fill: #8c9c3a;
      }
    </style>
    <filter id="drop-shadow-1" x="2.95" y="24.25" width="509.28" height="446.64" filterUnits="userSpaceOnUse">
      <feOffset dx="7" dy="7"/>
      <feGaussianBlur result="blur" stdDeviation="5"/>
      <feFlood flood-color="#231f20" flood-opacity=".75"/>
      <feComposite in2="blur" operator="in"/>
      <feComposite in="SourceGraphic"/>
    </filter>
  </defs>
  <g class="cls-1">
    <g>
      <path class="cls-9" d="M473.89,260.98c7.5-50.36-31.28-83.42-68.58-64.29-41.79,21.43-28.93,82.51-75.01,106.08-31.63,16.18-63.16,19.57-83.58,18.22l5.36,33.22c130.72,48.22,213.93-40.37,221.8-93.22Z"/>
      <g>
        <path class="cls-2" d="M392.46,315.63c35.75-29.19,54.25-74.88,50.23-121.45-9.56-3.78-20.42-4.11-31.37-.11,4.28,16.98,7.25,42.46-2.78,69.05-18.58,49.28-74.17,82.22-138.22,79.29,7.22,1.75,69.92,15.86,122.15-26.79Z"/>
        <path class="cls-4" d="M473.89,260.98c1.02-6.88,1.18-13.43.6-19.57-2.29,9.39-5.58,19.22-10.24,29.21-29.13,62.41-91.41,87.53-125.15,96.91,79.91-6.35,128.85-66.64,134.79-106.55Z"/>
      </g>
      <path class="cls-7" d="M329.51,303.17c-25.17,12.7-50.21,17.36-69.58,18.01-5.37,12.53-7.13,24.59-2.6,34.89,23.25,8.01,44.94,11.65,64.94,11.98-4.42-21.39-.67-44.1,7.24-64.87Z"/>
      <g>
        <path class="cls-6" d="M455.35,241.17c11.58.6,23.16,1.2,34.74,1.8-8.62,7.5-17.23,14.99-25.85,22.49-6.65-7.7-9.34-15.82-8.88-24.29Z"/>
        <path class="cls-6" d="M435.24,286.69c4.57,10.65,9.15,21.31,13.72,31.96-10.53-4.42-21.06-8.84-31.59-13.27,3.97-9.37,10.07-15.37,17.87-18.69Z"/>
        <path class="cls-6" d="M386.33,324.02c-1.24,9.96-2.48,19.91-3.72,29.87-5.93-7.9-11.87-15.81-17.8-23.71,7.06-5.26,14.24-7.08,21.52-6.16Z"/>
        <path class="cls-6" d="M413.99,210.63c5.75-8.22,11.5-16.44,17.25-24.67,1.55,9.76,3.1,19.52,4.65,29.28-8.7,1.35-15.9-.4-21.9-4.62Z"/>
        <path class="cls-6" d="M387.71,267.45c-.72-10.01-1.45-20.01-2.17-30.02,7.36,6.6,14.72,13.19,22.07,19.79-5.9,6.54-12.59,9.71-19.91,10.23Z"/>
        <path class="cls-6" d="M319.52,334.22c-.52-7.19-1.04-14.38-1.56-21.57,5.29,4.74,10.57,9.48,15.86,14.22-4.24,4.7-9.04,6.98-14.3,7.35Z"/>
        <path class="cls-6" d="M352.87,294.87c-.62-8.55-1.24-17.1-1.85-25.65,6.29,5.64,12.58,11.28,18.86,16.91-5.04,5.59-10.76,8.3-17.01,8.74Z"/>
      </g>
    </g>
    <g>
      <path class="cls-9" d="M18.55,120.05c18.88-47.29,69.03-56.32,91.62-21.02,25.31,39.56-16.55,85.85,11.39,129.42,19.18,29.91,44.72,48.71,63.04,57.82l-21.35,26C26.02,288.11-1.26,169.67,18.55,120.05Z"/>
      <g>
        <path class="cls-2" d="M61.39,208.26c-16.19-43.22-9.17-92.01,17.76-130.22,10.17,1.54,19.71,6.73,27.16,15.7-12.25,12.52-27.64,33.03-32.37,61.06-8.76,51.93,22.68,108.38,79.5,138.1-7.12-2.12-68.39-21.51-92.05-84.65Z"/>
        <path class="cls-4" d="M18.55,120.05c2.58-6.46,5.74-12.19,9.33-17.21-2.75,9.26-4.86,19.42-5.86,30.4-6.26,68.59,34.91,121.66,59.33,146.74C15.5,234.26,3.59,157.53,18.55,120.05Z"/>
      </g>
      <path class="cls-8" d="M69.95,271.33c9.93-11.42,19.21-26.27,22.91-44.72,3.68-18.36-.61-28.04,1.06-46.51,1.38-15.21,6.75-35.69,24.11-59.54,4.83,34.29-19.49,72.02,3.52,107.89,15.42,24.05,34.96,40.91,51.54,51.34-1.67,13.53-6.22,24.84-15.32,31.45-37.21-7.39-66.04-21.85-87.83-39.91Z"/>
      <g>
        <path class="cls-6" d="M44.55,112.27c-10.31-5.31-20.61-10.62-30.92-15.93,3.67,10.82,7.34,21.63,11.01,32.45,9.63-3.3,16.04-8.97,19.91-16.51Z"/>
        <path class="cls-6" d="M39,161.72c-9.32,6.9-18.63,13.8-27.95,20.71,11.32,1.48,22.65,2.96,33.97,4.44,1.29-10.09-.97-18.35-6.03-25.15Z"/>
        <path class="cls-6" d="M62.47,218.6c-3.94,9.23-7.89,18.45-11.83,27.68,9.11-3.84,18.21-7.68,27.32-11.52-3.45-8.1-8.74-13.28-15.49-16.15Z"/>
        <path class="cls-6" d="M95.66,106.7c-.83-10-1.65-20-2.48-30-6.25,7.65-12.51,15.3-18.76,22.96,6.84,5.55,13.94,7.66,21.24,7.04Z"/>
        <path class="cls-6" d="M89.75,169.03c5.66-8.28,11.33-16.56,16.99-24.84-9.68,2-19.36,3.99-29.04,5.99,1.81,8.62,5.99,14.73,12.05,18.86Z"/>
        <path class="cls-6" d="M91.7,263.38c-3.22,6.45-6.44,12.9-9.66,19.34,6.69-2.37,13.39-4.73,20.08-7.1-2.13-5.96-5.7-9.9-10.42-12.25Z"/>
        <path class="cls-6" d="M106.05,210.26c4.84-7.08,9.68-14.15,14.52-21.23-8.27,1.7-16.54,3.41-24.82,5.11,1.54,7.36,5.12,12.59,10.3,16.12Z"/>
      </g>
    </g>
    <g>
      <path class="cls-9" d="M329.24,47.75c-35.78-18.38-78.16-5.29-83.58-3.21-80.85,31.04-113.94,153.12-106.08,243.23,5.74,65.75,33.52,117.17,57.86,151.08,30.37,14.03,61.13,12.21,92.15,0-10.61-77.28,4.39-128.81,20.36-161.8,21.42-44.27,37.69-55.62,53.58-98.58,18.08-48.88,9.73-108.11-34.29-130.72Z"/>
      <g>
        <path class="cls-5" d="M329.24,47.75c-.77-.4-1.55-.76-2.33-1.13,8.14,24.04,13.98,54.99,7.15,88.46-11.56,56.64-50.33,75.92-70.72,121.08-16.08,35.61-23.05,92.48,19.91,185.04,2.11-.73,4.23-1.51,6.34-2.35-10.61-77.28,4.39-128.81,20.36-161.8,21.42-44.27,37.69-55.62,53.58-98.58,18.08-48.88,9.73-108.11-34.29-130.72Z"/>
        <path class="cls-4" d="M187.56,91.06c-38.4,52.17-53.57,132.54-47.97,196.71,5.74,65.75,33.52,117.17,57.86,151.08,17.86,8.26,35.87,11.02,53.98,9.41-28.61-31.77-81.8-102.93-88.8-206.03-4.3-63.37,10.41-115.79,24.93-151.17Z"/>
        <path class="cls-2" d="M219.41,274.38c-4.96-110.6,40.34-194.61,68.46-236.27-7.55-.12-14.62.48-20.75,1.38-26.05,32.07-60.43,86.5-70.21,160.96-16.18,123.15,46.24,214.96,70.14,245.38.6-.13,1.2-.27,1.8-.41-19.29-34.26-45.97-93.64-49.44-171.04Z"/>
      </g>
    </g>
    <g>
      <g>
        <path class="cls-3" d="M258.03,53.12c-13.6-3.06-27.2-6.12-40.81-9.18,7.55,11.47,15.09,22.95,22.64,34.42,10.2-6.76,15.95-15.3,18.16-25.24Z"/>
        <path class="cls-3" d="M217.62,92.77c-12.89-1.62-25.79-3.25-38.68-4.87,8.03,9.97,16.05,19.94,24.08,29.91,8.86-7.18,13.43-15.62,14.6-25.04Z"/>
        <path class="cls-3" d="M189,141.74c-12.18-.19-24.37-.38-36.55-.56,8.51,8.47,17.01,16.94,25.52,25.41,7.52-7.6,10.91-15.94,11.03-24.84Z"/>
        <path class="cls-3" d="M172.81,200.66c-11.48,1.25-22.95,2.5-34.43,3.74,8.99,6.97,17.97,13.93,26.96,20.9,6.18-8.03,8.4-16.26,7.47-24.64Z"/>
        <path class="cls-3" d="M169.62,266.71c-10.77,2.68-21.53,5.37-32.3,8.05,9.47,5.46,18.93,10.93,28.4,16.39,4.84-8.45,5.88-16.58,3.9-24.44Z"/>
        <path class="cls-3" d="M180.15,338.37c-10.06,4.12-20.12,8.24-30.17,12.36,9.95,3.96,19.89,7.92,29.84,11.89,3.5-8.87,3.36-16.9.33-24.24Z"/>
      </g>
      <g>
        <path class="cls-3" d="M355.6,77.73c11.19.6,22.38,1.2,33.57,1.8-8.34,7.23-16.68,14.46-25.02,21.69-6.42-7.45-9-15.31-8.54-23.49Z"/>
        <path class="cls-3" d="M333.92,130.35c12.12,1.24,24.25,2.48,36.37,3.72-9.44,7.41-18.88,14.83-28.32,22.24-6.58-8.43-8.97-17.1-8.05-25.96Z"/>
        <path class="cls-3" d="M314.56,189.23c10.49,4.81,20.99,9.62,31.48,14.43-10.73,3.77-21.46,7.54-32.18,11.31-3.33-9.57-2.83-18.08.7-25.74Z"/>
        <path class="cls-3" d="M286.1,259.51c10.06,4.67,20.13,9.35,30.19,14.02-10.33,3.57-20.66,7.14-30.99,10.71-3.15-9.21-2.63-17.39.8-24.74Z"/>
        <path class="cls-3" d="M271.9,338.33c10.06,4.12,20.12,8.24,30.17,12.36-9.95,3.96-19.89,7.92-29.84,11.89-3.5-8.87-3.36-16.9-.33-24.24Z"/>
      </g>
      <g>
        <path class="cls-3" d="M318.7,67.54c-7.56-11.71-15.12-23.43-22.68-35.14-2.66,13.47-5.31,26.95-7.97,40.42,12.01,2.33,22.1.26,30.65-5.28Z"/>
        <path class="cls-3" d="M287.56,113.15c-12.89-1.62-25.79-3.25-38.68-4.87,8.03,9.97,16.05,19.94,24.08,29.91,8.86-7.18,13.43-15.62,14.6-25.04Z"/>
        <path class="cls-3" d="M251.72,169.83c-12.18-.19-24.37-.38-36.55-.56,8.51,8.47,17.01,16.94,25.52,25.41,7.52-7.6,10.91-15.94,11.03-24.84Z"/>
        <path class="cls-3" d="M233.31,237.94c-11.48,1.25-22.95,2.5-34.43,3.74,8.99,6.97,17.97,13.93,26.96,20.9,6.18-8.03,8.4-16.26,7.47-24.64Z"/>
        <path class="cls-3" d="M228.27,311.7c-10.77,2.68-21.53,5.37-32.3,8.05,9.47,5.46,18.93,10.93,28.4,16.39,4.84-8.45,5.88-16.58,3.9-24.44Z"/>
        <path class="cls-3" d="M238.01,386.59c-10.06,4.12-20.12,8.24-30.17,12.36,9.95,3.96,19.89,7.92,29.84,11.89,3.5-8.87,3.36-16.9.33-24.24Z"/>
      </g>
    </g>
  </g>
</svg>