<?xml version="1.0" encoding="UTF-8"?>
<svg id="Layer_1" data-name="Layer 1" xmlns="http://www.w3.org/2000/svg" xmlns:xlink="http://www.w3.org/1999/xlink" viewBox="0 0 501.14 481.11">
  <defs>
    <style>
      .cls-1 {
        filter: url(#drop-shadow-1);
      }

      .cls-2 {
        fill: #010101;
      }

      .cls-3 {
        fill: #994f23;
      }

      .cls-4 {
        fill: #8a481f;
      }

      .cls-5 {
        fill: #fff;
      }

      .cls-6 {
        fill: #f1a721;
      }

      .cls-7 {
        opacity: .14;
      }

      .cls-8 {
        fill: #301111;
      }

      .cls-9 {
        fill: #581f0e;
      }
    </style>
    <filter id="drop-shadow-1" x="-2.33" y="101.29" width="519.6" height="292.56" filterUnits="userSpaceOnUse">
      <feOffset dx="7" dy="7"/>
      <feGaussianBlur result="blur" stdDeviation="5"/>
      <feFlood flood-color="#231f20" flood-opacity=".75"/>
      <feComposite in2="blur" operator="in"/>
      <feComposite in="SourceGraphic"/>
    </filter>
  </defs>
  <g class="cls-1">
    <g>
      <path class="cls-8" d="M316.81,165.42h-132.49v-55.79c44.16,16.73,88.33,16.73,132.49,0v55.79Z"/>
      <g>
        <path class="cls-5" d="M149.51,292.43c-1.13-33.44,1.22-67.09,6.98-100.03,4.56-26.07,11.32-51.95,20.09-76.93,1.17-3.34,4.23-5.5,7.79-5.5,2.48,0,4.72,1.06,6.3,3,6.6,8.06,14.28,15.12,22.83,20.98l.42.29c10.84,7.36,23.51,11.25,36.65,11.25s25.81-3.89,36.65-11.25l.38-.26c8.59-5.89,16.27-12.95,22.87-21.01,1.58-1.93,3.82-3,6.3-3,3.56,0,6.62,2.16,7.79,5.5,8.77,24.98,15.53,50.87,20.09,76.93,5.77,32.93,8.12,66.59,6.98,100.03h-202.12Z"/>
        <path class="cls-2" d="M316.77,110.48c3.35,0,6.22,2.03,7.32,5.16,8.76,24.95,15.51,50.81,20.07,76.85,5.73,32.75,8.08,66.2,6.99,99.45h-201.15c-1.09-33.25,1.26-66.7,6.99-99.45,4.56-26.04,11.31-51.9,20.07-76.85,1.1-3.14,3.97-5.16,7.32-5.16,2.33,0,4.43,1,5.92,2.81,6.63,8.09,14.34,15.18,22.93,21.07l.42.29c10.92,7.42,23.69,11.34,36.93,11.34s26.01-3.92,36.93-11.34l.43-.29c8.59-5.89,16.3-12.98,22.93-21.07,1.49-1.81,3.59-2.81,5.92-2.81M316.77,109.48c-2.45,0-4.92,1.02-6.69,3.18-5.47,6.68-12.9,14.14-22.72,20.88-.14.1-.28.19-.42.29-10.96,7.44-23.66,11.17-36.37,11.17s-25.41-3.72-36.37-11.17c-.14-.1-.28-.19-.42-.29-9.82-6.74-17.25-14.2-22.72-20.88-1.77-2.16-4.24-3.18-6.69-3.18-3.49,0-6.94,2.07-8.26,5.83-7.64,21.78-14.96,47.61-20.11,77.01-6.8,38.82-7.93,73.16-6.97,100.61h203.08c.96-27.46-.18-61.79-6.97-100.61-5.15-29.4-12.47-55.23-20.11-77.01-1.32-3.76-4.77-5.83-8.26-5.83h0Z"/>
      </g>
      <path class="cls-4" d="M345.14,192.31c-5.15-29.4-12.47-55.23-20.11-77.01-2.25-6.4-10.65-7.9-14.95-2.65-5.47,6.68-12.9,14.14-22.72,20.88-.14.1-.28.19-.42.29-21.92,14.89-50.82,14.89-72.73,0-.14-.1-.28-.19-.42-.29-9.82-6.74-17.25-14.2-22.72-20.88-4.3-5.24-12.7-3.75-14.95,2.65-7.64,21.78-14.96,47.61-20.11,77.01-6.8,38.82-7.93,73.16-6.97,100.61h203.08c.96-27.46-.18-61.79-6.97-100.61Z"/>
      <path class="cls-6" d="M250.57,248.6c-38.7,0-73.68-10.23-98.8-26.71-3,26.78-3.44,50.78-2.74,71.04h203.08c.71-20.25.27-44.26-2.74-71.04-25.12,16.48-60.11,26.71-98.8,26.71Z"/>
      <g class="cls-7">
        <path class="cls-8" d="M156.71,188.4c-.24,1.3-.48,2.6-.71,3.92-6.8,38.82-7.93,73.16-6.97,100.61h77.03c-35.13-13.11-62.33-53.72-69.35-104.53Z"/>
        <path class="cls-8" d="M345.14,192.31c-.23-1.32-.47-2.62-.71-3.92-7.02,50.81-34.22,91.42-69.35,104.53h77.03c.96-27.46-.18-61.79-6.97-100.61Z"/>
      </g>
    </g>
    <g>
      <g>
        <path class="cls-9" d="M22.2,219.21c-10.96,9.96-18.02,29.03-15.94,48.81,4.68,44.35,53.6,73.3,100.61,74.71,44.2,1.33,87.86-21.69,100.61-31.88-20.67-22.47-60.26-58.85-120.54-78.7-24.05-7.92-46.2-11.5-64.75-12.95Z"/>
        <path class="cls-9" d="M478.94,219.21c10.96,9.96,18.02,29.03,15.94,48.81-4.68,44.35-53.6,73.3-100.61,74.71-44.2,1.33-87.86-21.69-100.61-31.88,20.67-22.47,60.26-58.85,120.54-78.7,24.05-7.92,46.2-11.5,64.75-12.95Z"/>
      </g>
      <g>
        <path class="cls-8" d="M86.95,232.16c-24.05-7.92-46.2-11.5-64.75-12.95,41.84,12.95,52.8,89.66,112.55,121.33.04.02.09.04.13.06,33.47-5.81,62.58-21.74,72.61-29.74-20.67-22.47-60.26-58.85-120.54-78.7Z"/>
        <path class="cls-8" d="M414.19,232.16c24.05-7.92,46.2-11.5,64.75-12.95-41.84,12.95-52.8,89.66-112.55,121.33-.04.02-.09.04-.13.06-33.47-5.81-62.58-21.74-72.61-29.74,20.67-22.47,60.26-58.85,120.54-78.7Z"/>
      </g>
      <path class="cls-3" d="M430.13,203.27c-33.09,3.41-107.09,74.71-179.56,74.71s-146.47-71.31-179.56-74.71c-19.64-2.02-36.95,7.34-48.81,15.94,49.31,0,104.6,152.42,228.37,152.42s179.56-152.42,228.37-152.42c-11.86-8.6-29.17-17.96-48.81-15.94Z"/>
    </g>
  </g>
</svg>