<?xml version="1.0" encoding="UTF-8"?>
<svg id="Layer_1" data-name="Layer 1" xmlns="http://www.w3.org/2000/svg" xmlns:xlink="http://www.w3.org/1999/xlink" viewBox="0 0 501.14 481.11">
  <defs>
    <style>
      .cls-1 {
        filter: url(#drop-shadow-1);
      }

      .cls-2 {
        fill: #994f23;
      }

      .cls-3 {
        fill: #f1a721;
      }

      .cls-4 {
        opacity: .12;
      }

      .cls-5 {
        fill: #301111;
      }

      .cls-6 {
        fill: #70712f;
      }

      .cls-7 {
        fill: #8c9c3a;
      }

      .cls-8 {
        fill: #fefdf2;
        opacity: .14;
      }
    </style>
    <filter id="drop-shadow-1" x="103.75" y="-8.15" width="307.68" height="511.44" filterUnits="userSpaceOnUse">
      <feOffset dx="7" dy="7"/>
      <feGaussianBlur result="blur" stdDeviation="5"/>
      <feFlood flood-color="#231f20" flood-opacity=".75"/>
      <feComposite in2="blur" operator="in"/>
      <feComposite in="SourceGraphic"/>
    </filter>
  </defs>
  <g class="cls-1">
    <rect class="cls-6" x="202.43" y="91.58" width="96.29" height="80.37"/>
    <path class="cls-2" d="M219.87,100.73c-6.03-27.53-12.07-55.06-18.1-82.58C206.52,14.01,222.69.95,247.02.05c30.32-1.12,50.2,17.5,53.74,20.93-5.09,25.83-10.18,51.66-15.27,77.49-21.87.75-43.74,1.51-65.61,2.26Z"/>
    <g>
      <path class="cls-7" d="M250.57,146.09c-190.06,0-132.07,247.58-124.71,300.5,2.63,18.88,55.83,34.51,124.71,34.51s122.08-15.63,124.71-34.51c7.36-52.92,65.35-300.5-124.71-300.5Z"/>
      <path class="cls-3" d="M251.67,198.02c-.74,0-1.47,0-2.21,0-59.8.43-105.38,53.76-96.82,112.95l16.94,117.22c54,9.87,107.99,9.87,161.99,0l16.94-117.22c8.55-59.19-37.02-112.53-96.82-112.95Z"/>
      <g class="cls-4">
        <path class="cls-5" d="M215.46,454.05c-34.78,0-67.35-15.48-95.24-42.44,2.35,14.98,4.55,27.13,5.65,34.98,2.63,18.88,55.83,34.51,124.71,34.51s122.08-15.63,124.71-34.51c3.75-26.94,20.62-104.34,11.19-173.84-29.07,106.8-94.71,181.3-171.02,181.3Z"/>
      </g>
      <path class="cls-8" d="M150.2,376.86c-13.17-.96-41-115.09,15.92-173.48,24.23-24.86,61.94-37.69,70.03-28.65,8.81,9.86-22.78,39.89-53.32,110.61-26.48,61.32-25.74,92.01-32.63,91.51Z"/>
    </g>
    <g>
      <path class="cls-7" d="M301.66,73.63c-34.15-3.77-68.22-3.8-102.19-.03-12.11,1.34-21.31,11.52-21.31,23.71v.05c0,12.57,9.76,23.01,22.31,23.8,33.31,2.09,66.71,2.07,100.2-.02,12.55-.78,22.32-11.22,22.32-23.8h0c0-12.19-9.21-22.37-21.33-23.71Z"/>
      <ellipse class="cls-8" cx="263.6" cy="89.99" rx="46.55" ry="6.76"/>
    </g>
  </g>
</svg>