<?xml version="1.0" encoding="UTF-8"?>
<svg id="Layer_1" data-name="Layer 1" xmlns="http://www.w3.org/2000/svg" xmlns:xlink="http://www.w3.org/1999/xlink" viewBox="0 0 501.14 481.11">
  <defs>
    <style>
      .cls-1 {
        fill: #c5c4c0;
      }

      .cls-2 {
        filter: url(#drop-shadow-1);
      }

      .cls-3 {
        fill: #f1a721;
        opacity: .17;
      }

      .cls-4 {
        fill: #85827b;
      }

      .cls-5 {
        fill: #994f23;
      }

      .cls-6 {
        opacity: .09;
      }

      .cls-6, .cls-7 {
        fill: #1f0d0e;
      }

      .cls-8 {
        opacity: .8;
      }

      .cls-9 {
        opacity: .15;
      }

      .cls-10 {
        fill: #301111;
      }

      .cls-11 {
        fill: #fefdf2;
        opacity: .37;
      }
    </style>
    <filter id="drop-shadow-1" x="-8.09" y="86.41" width="531.36" height="322.32" filterUnits="userSpaceOnUse">
      <feOffset dx="7" dy="7"/>
      <feGaussianBlur result="blur" stdDeviation="5"/>
      <feFlood flood-color="#231f20" flood-opacity=".75"/>
      <feComposite in2="blur" operator="in"/>
      <feComposite in="SourceGraphic"/>
    </filter>
  </defs>
  <g class="cls-2">
    <path class="cls-10" d="M184.81,224.71c-16.7,5.72-44.74,20.3-42.86,32.15.3,1.86,1.28,3.3,2.14,4.29,6.43.71,12.86,1.43,19.29,2.14.83,2.33,3.21,20.36,26.79,26.79,5.57,1.52,26.94,4.13,42.86-11.79,16.07-16.07,2.14-32.15,18.22-54.65-32.03-8.45-55.17-2.79-66.43,1.07ZM223.39,279.35c-13.04,9.94-28.91,4.06-31.07,3.21-14.57-5.68-19.64-19.71-21.43-24.64-2.08-5.76-3.48-9.62-2.14-13.93,1.34-4.32,5.07-7.93,10.12-10.54-2.3,7.54.96,17.37,5.07,23.56,7.16,10.79,18.71,13.29,21.18,13.77,1.06-2.12,2.12-4.24,3.18-6.36-1.48-.51-13.9-5-14.83-12.71-.83-6.89,7.57-16.13,22.54-19.89.32.13.64.25.95.38,3.59,1.54,13.54,5.81,17.14,16.07,3.94,11.25-1.67,24.18-10.72,31.07Z"/>
    <path class="cls-1" d="M136.6,114.34c-11.31-4-18.56-11.45-22.7-17.05-2.44-3.29-7.16-3.8-10.22-1.08l-.1.09c-2.12,1.88-2.9,4.87-1.93,7.54,3.4,9.35,11.79,26.89,30.66,38.36,10.67,6.48,20.99,8.77,27.86,9.64,6.43-14.29,12.86-28.57,19.29-42.86-2.27,1.46-20.98,13.1-42.86,5.36Z"/>
    <path class="cls-4" d="M308.26,100.38h-121.02c-3.65,0-7.13,1.58-9.53,4.34l-28.07,32.24c-4.45,5.11-6.47,11.9-5.54,18.62.02.11.03.22.05.34,1.98,14.25-3.06,28.59-13.52,38.47l-2.61,2.47c4.64,20,9.29,40,13.93,60,24.14-18.75,53.83-28.93,84.39-28.93h51.92c10.38,0,19.89-5.82,24.61-15.07l18.02-35.29v-64.55c0-6.98-5.66-12.63-12.63-12.63Z"/>
    <g>
      <path class="cls-5" d="M136.39,189.01c-36.23-1.86-58.6,9.75-68.49,15.98-38.31,24.13-50.97,69.25-61.64,107.3-2.35,8.36-4.15,16.16-5.54,23.16-3.11,15.7,4.05,31.67,17.94,39.61,6.39,3.65,14.05,6.98,22.98,9.14,15.41,3.72,29.26,2.65,39.97.29,10.98-2.42,17.86-13.26,15.49-24.25-4.19-19.43-6.51-51.81,14.17-78.78,13.23-17.25,30.35-25.08,39.95-28.54-1.05-23.48-4.92-45.39-14.84-63.93Z"/>
      <path class="cls-3" d="M142.39,237.16c-.74-6.01-1.92-12.6-3.72-19.62-1.21-4.69-2.56-9.05-3.99-13.08-1.61-4.54-6.1-7.4-10.89-6.92-14.76,1.45-35.43,4.8-53.61,18.86-30.25,23.4-46.23,66.78-53.07,111.75-2.67,17.54,11.56,33.57,28.45,38.99,2.71.87,5.59,1.63,8.64,2.22,5.61,1.1,10.84,1.47,15.48,1.43,6.88-.06,11.78-6.72,9.9-13.34-4.23-14.9-7.99-41.35,6.58-68,14.04-25.69,37.01-36.74,49.35-41.07,4.66-1.64,7.49-6.33,6.88-11.23Z"/>
    </g>
    <g>
      <g>
        <circle class="cls-4" cx="443.58" cy="111.93" r="11.52"/>
        <rect class="cls-4" x="460.19" y="160.41" width="16.07" height="16.07" rx="5.21" ry="5.21"/>
      </g>
      <path class="cls-10" d="M320.89,159.34v18.22h25.29c3.19,0,5.78-2.59,5.78-5.78v-12.43h-31.07Z"/>
      <g>
        <path class="cls-1" d="M493.64,112.2h-172.74v56.25h172.74c4.14,0,7.5-3.36,7.5-7.5v-41.25c0-4.14-3.36-7.5-7.5-7.5Z"/>
        <path class="cls-11" d="M501.14,122.66v-2.96c0-4.14-3.36-7.5-7.5-7.5h-172.74v10.47h180.24Z"/>
        <g class="cls-9">
          <path class="cls-7" d="M320.89,144.62v23.83h172.74c4.14,0,7.5-3.36,7.5-7.5v-16.33h-180.24Z"/>
        </g>
      </g>
    </g>
    <path class="cls-6" d="M283.29,110.59h-82.84c-3.68,0-7.03,1.88-9,4.82h-6.11c-2.37,0-4.29,1.92-4.29,4.29v2.28c-12.45,7.45-20.36,22.23-20.36,38.44,0,1.19.05,2.42.15,3.8.05.68.12,1.36.21,2.12.08.66.17,1.31.27,1.9l.03.18c.1.64.22,1.27.35,1.92,0,.02.02.11.03.13.13.61.27,1.22.4,1.77l.06.25c.15.59.31,1.18.47,1.71l.08.28c.17.57.35,1.13.54,1.68,0,.02.03.1.04.12l.05.14c.19.55.39,1.09.61,1.65l.1.26c.21.52.42,1.03.64,1.54l.14.31c.22.5.45.98.71,1.51l.15.3c.24.47.48.93.72,1.38l.21.39c.25.44.5.88.75,1.3l.25.41c.26.42.52.83.8,1.24l.28.41c.27.39.54.78.83,1.17l.31.42c.28.37.56.74.85,1.09l.37.45c.28.34.57.68.87,1.02l.4.45c.29.32.58.63.88.94l.46.46c.3.29.59.58.89.86l.51.47c.3.27.6.54.9.8.14.12.28.23.42.34l.14.11c.3.25.61.49.91.73.16.12.31.24.47.35l.13.1c.3.22.61.45.91.66.17.12.35.24.53.35l.23.15c.28.18.55.36.82.53.15.1.31.19.47.28v2.29c0,2.37,1.92,4.29,4.29,4.29h6.11c1.97,2.95,5.32,4.82,9,4.82h82.84c5.96,0,10.82-4.85,10.82-10.82v-78.02c0-5.96-4.85-10.82-10.82-10.82Z"/>
    <g>
      <g>
        <path class="cls-1" d="M164.99,160.41c0,21.6,15.11,39.11,33.75,39.11v-78.22c-18.64,0-33.75,17.51-33.75,39.11Z"/>
        <g class="cls-9">
          <path class="cls-7" d="M165.02,161.93c.69,20.89,15.52,37.59,33.72,37.59v-17.45c-14.57-.55-27.15-8.54-33.72-20.14Z"/>
        </g>
        <path class="cls-11" d="M170.88,153.18c-1.36-1.2,1.71-8.02,6.43-12.86,4.43-4.54,9.56-6.56,12.86-7.5v16.07c-2.61-.22-6.43-.23-10.72,1.07-5.23,1.58-7.63,4.05-8.57,3.21Z"/>
      </g>
      <rect class="cls-10" x="185.35" y="119.7" width="10.72" height="81.43"/>
      <g>
        <rect class="cls-1" x="193.92" y="114.88" width="95.9" height="91.08" rx="6.53" ry="6.53"/>
        <g class="cls-8">
          <path class="cls-10" d="M228.21,126.66h61.61v-5.26c0-3.61-2.92-6.53-6.53-6.53h-66.87c0,6.51,5.28,11.79,11.79,11.79Z"/>
          <path class="cls-10" d="M289.82,199.42v-5.26h-61.61c-6.51,0-11.79,5.28-11.79,11.79h66.87c3.61,0,6.53-2.92,6.53-6.53Z"/>
          <path class="cls-10" d="M216.42,160.15c0,6.51,5.28,11.79,11.79,11.79h61.61v-23.57h-61.61c-6.51,0-11.79,5.28-11.79,11.79Z"/>
        </g>
        <path class="cls-11" d="M289.82,130.79v-9.38c0-3.61-2.92-6.53-6.53-6.53h-82.84c-3.61,0-6.53,2.92-6.53,6.53v9.38h95.9Z"/>
        <g class="cls-9">
          <path class="cls-7" d="M193.92,178.35v21.08c0,3.61,2.92,6.53,6.53,6.53h82.84c3.61,0,6.53-2.92,6.53-6.53v-21.08h-95.9Z"/>
        </g>
      </g>
    </g>
  </g>
</svg>